<svg xmlns="http://www.w3.org/2000/svg" viewBox="0 0 100 100">
  <!-- Dark background -->
  <rect width="100" height="100" rx="18" fill="#0a0a0a"/>

  <!-- Wire star - outline style with mixed stroke weights - GREEN #22C55E -->
  <g fill="none" stroke="#22C55E" transform="translate(50,50)">
    <polygon points="0,-42 4,-10 0,0 -4,-10" stroke-width="3"/>
    <polygon points="0,-35 2,-8 0,0 -2,-8" transform="rotate(58)" stroke-width="1.5"/>
    <polygon points="0,-42 5,-8 0,2 -5,-8" transform="rotate(108)" stroke-width="2.5"/>
    <polygon points="0,-30 2,-6 0,0 -2,-6" transform="rotate(165)" stroke-width="1"/>
    <polygon points="0,-44 4,-10 0,0 -4,-10" transform="rotate(220)" stroke-width="2"/>
    <polygon points="0,-38 3,-6 0,0 -3,-6" transform="rotate(280)" stroke-width="1.5"/>
    <polygon points="0,-40 4,-8 0,0 -4,-8" transform="rotate(330)" stroke-width="2.5"/>
    <circle cx="0" cy="0" r="10" stroke-width="2"/>
    <circle cx="0" cy="0" r="4" fill="#22C55E" stroke="none"/>
  </g>
</svg>
